<?xml version="1.0" encoding="UTF-8" standalone="no"?>
<!-- Created with Inkscape (http://www.inkscape.org/) -->

<svg
   xmlns:dc="http://purl.org/dc/elements/1.1/"
   xmlns:cc="http://creativecommons.org/ns#"
   xmlns:rdf="http://www.w3.org/1999/02/22-rdf-syntax-ns#"
   xmlns:svg="http://www.w3.org/2000/svg"
   xmlns="http://www.w3.org/2000/svg"
   xmlns:xlink="http://www.w3.org/1999/xlink"
   xmlns:sodipodi="http://sodipodi.sourceforge.net/DTD/sodipodi-0.dtd"
   xmlns:inkscape="http://www.inkscape.org/namespaces/inkscape"
   width="57mm"
   height="57mm"
   viewBox="0 0 201.96851 201.96851"
   id="svg4184"
   version="1.1"
   inkscape:version="0.91 r13725"
   sodipodi:docname="repronim-logo1.svg"
   inkscape:export-filename="/home/yoh/repronim-logo1.2_nobg.png"
   inkscape:export-xdpi="599.79651"
   inkscape:export-ydpi="599.79651">
  <defs
     id="defs4186">
    <filter
       inkscape:menu-tooltip="In and out glow with a possible offset and colorizable flood"
       inkscape:menu="Shadows and Glows"
       inkscape:label="Cutout Glow"
       style="color-interpolation-filters:sRGB;"
       id="filter4828">
      <feOffset
         dy="3"
         dx="3"
         id="feOffset4830" />
      <feGaussianBlur
         stdDeviation="3"
         result="blur"
         id="feGaussianBlur4832" />
      <feFlood
         flood-color="rgb(0,0,0)"
         flood-opacity="1"
         result="flood"
         id="feFlood4834" />
      <feComposite
         in="flood"
         in2="SourceGraphic"
         operator="in"
         result="composite"
         id="feComposite4836" />
      <feBlend
         in="blur"
         in2="composite"
         mode="normal"
         id="feBlend4838" />
    </filter>
  </defs>
  <sodipodi:namedview
     id="base"
     pagecolor="#ffffff"
     bordercolor="#666666"
     borderopacity="1.0"
     inkscape:pageopacity="0.0"
     inkscape:pageshadow="2"
     inkscape:zoom="2"
     inkscape:cx="98.133882"
     inkscape:cy="102.4291"
     inkscape:document-units="px"
     inkscape:current-layer="layer1"
     showgrid="false"
     showguides="false"
     inkscape:guide-bbox="true"
     fit-margin-top="0"
     fit-margin-left="0"
     fit-margin-right="0"
     fit-margin-bottom="0">
    <sodipodi:guide
       position="96.423946,246.5996"
       orientation="1,0"
       id="guide4738" />
  </sodipodi:namedview>
  <metadata
     id="metadata4189">
    <rdf:RDF>
      <cc:Work
         rdf:about="">
        <dc:format>image/svg+xml</dc:format>
        <dc:type
           rdf:resource="http://purl.org/dc/dcmitype/StillImage" />
        <dc:title></dc:title>
      </cc:Work>
    </rdf:RDF>
  </metadata>
  <g
     inkscape:groupmode="layer"
     id="layer2"
     inkscape:label="white_bg"
     style="display:none">
    <rect
       style="color:#000000;display:inline;overflow:visible;visibility:visible;opacity:1;fill:#ffffff;fill-opacity:1;fill-rule:nonzero;stroke:none;stroke-width:5;stroke-linecap:round;stroke-linejoin:miter;stroke-miterlimit:4;stroke-dasharray:none;stroke-dashoffset:0;stroke-opacity:0.52941165;marker:none;enable-background:accumulate"
       id="rect4826"
       width="212"
       height="213"
       x="-5"
       y="-2.0314934" />
  </g>
  <g
     inkscape:label="Layer 1"
     inkscape:groupmode="layer"
     id="layer1"
     transform="translate(-240.71447,-186.02509)">
    <g
       id="g4813"
       transform="translate(4.555817,35.928788)"
       style="filter:url(#filter4828)">
      <path
         id="path4193"
         style="display:inline;opacity:1;fill:none;fill-opacity:1;stroke:#87aade;stroke-width:3;stroke-miterlimit:4;stroke-dasharray:none;stroke-opacity:1;enable-background:new"
         d="m 320.19328,280.01311 c -0.48202,-1.38896 -1.64199,-4.15918 -2.32584,-5.16345 -0.68378,-1.00428 -2.01798,-2.72551 -2.73637,-3.29861 -0.71838,-0.57343 -1.16326,-0.93208 -1.57378,-0.57343 -0.41026,0.35797 -0.20513,1.36224 0.34189,2.29509 2.16438,4.55523 5.88605,10.27315 4.78954,15.56281 -0.34188,1.29091 -1.43668,4.30288 -2.32584,5.30724 -0.88908,1.00427 -1.43669,1.21939 -2.46294,1.79249 -1.02617,0.57343 -1.16326,1.14721 -2.18943,0.86066 -1.02625,-0.28672 -1.98438,-0.86066 -2.53106,-1.14721 -0.54787,-0.28672 -1.23147,-0.78889 -1.5049,-0.35882 -0.27351,0.43008 0.27267,1.36225 0.54787,1.79258 0.27351,0.43007 0.68377,1.36233 0.34188,1.93636 -0.34188,0.57343 -1.43668,2.22282 -2.12054,2.86827 -0.68378,0.64554 -3.42098,2.79685 -4.65245,3.4423 -1.23139,0.64554 -4.74599,1.77188 -5.95196,1.93628 -1.20615,0.16626 -3.01064,0 -3.62629,-0.43008 -0.61539,-0.43007 -1.04347,-1.2909 -1.04347,-1.86493 0,-0.57344 0.10299,-1.95434 0.30728,-2.52837 0.20597,-0.57259 0.34188,-1.46896 0.325,-1.91821 -0.0169,-0.44958 -0.54786,-0.78889 -0.82053,-0.43007 -0.27351,0.35882 -0.54786,1.43452 -0.61624,2.0077 -0.0675,0.57428 -0.34189,2.5103 -0.61624,3.01205 -0.27351,0.50133 -1.91525,2.22282 -2.80525,2.51031 -0.88916,0.28671 -3.6262,1.00435 -4.99392,0.71679 -1.36856,-0.28672 -2.73628,-0.64554 -3.96783,-1.0757 -1.23147,-0.43008 -3.69441,-1.4346 -4.51536,-1.93619 -0.82053,-0.50133 -2.9415,-2.58181 -2.9415,-2.58181 0,0 -0.61624,0.28672 -1.09437,0.57343 -0.47864,0.28672 -1.02617,0.7889 -1.23139,1.14713 -0.20597,0.35882 -0.11143,0.96813 -0.11143,0.96813 0,0 -1.05166,0.53781 -1.25696,1.25477 -0.20513,0.7168 -0.41027,2.22291 -0.20513,3.22718 0.20513,1.00428 0.88907,3.0834 1.23147,3.51373 0.34188,0.43008 0.68715,0.96381 0.68715,0.96381 0,0 0.20175,2.3348 0.61202,2.98016 0.41026,0.64554 1.23138,2.22291 1.23138,2.22291 0,0 0.21273,1.6946 0.65423,2.42429 0.43981,0.73206 1.60333,2.16607 1.60333,2.16607 0,0 0.13759,1.36233 0.68377,2.15148 0.54786,0.7889 2.25772,2.43795 2.25772,2.43795 l 1.16326,1.00436 c 0,0 0.34189,0.932 0.95805,1.4346 0.61624,0.50218 2.32593,1.0757 2.32593,1.0757 0,0 0.27351,0.78889 0.82053,1.57745 0.54786,0.7889 2.25772,2.58173 2.80524,2.86828 0.54787,0.28671 2.1896,0.43007 2.1896,0.43007 0,0 0.88916,0.86058 1.5737,1.21948 0.68377,0.35882 2.39481,0.932 2.39481,0.932 0,0 1.09438,0.7889 1.7102,1.29083 0.61624,0.50133 2.39473,1.07578 2.87337,1.21948 0.47526,0.14505 2.32247,0.14505 2.32247,0.14505 0,0 1.13793,0.6676 1.64199,0.86058 0.50481,0.19256 1.57386,0.71679 2.05242,0.57343 0.47864,-0.1442 1.27418,-0.89162 1.27418,-0.89162 0,0 0.91541,0.89162 1.80449,1.1791 0.88907,0.28672 2.46294,0.86049 3.48911,0.50133 1.02625,-0.35882 1.98429,-0.932 2.66815,-1.2909 0.68378,-0.35882 1.57378,-0.64554 1.57378,-0.64554 0,0 0.82053,0.28672 1.23147,0.35967 0.41026,0.0763 1.57386,0.50133 1.57386,0.50133 0,0 0.45332,0.70831 1.15026,1.28658 0.69644,0.57852 1.58695,1.15136 2.27072,1.51027 0.68378,0.35882 1.36865,0.50133 1.9843,0.57343 0.61624,0.0763 1.29951,0.21547 1.9843,0.35798 0.68377,0.1442 1.84712,0.28671 2.59994,0.71679 0.75216,0.43008 1.7709,1.12914 2.32171,1.28225 0.55209,0.15269 1.78314,0.29605 1.78314,0.29605 l 0.84247,0.35882 c 0,0 -0.36383,-5.59378 -0.91043,-8.24693 -0.54786,-2.65316 -1.9843,-8.10418 -2.73636,-10.6859 -0.75131,-2.58165 -2.32568,-8.82097 -3.21568,-11.4027 -0.88916,-2.58164 -2.32577,-5.66512 -3.28389,-7.74518 -0.95813,-2.07997 -2.53098,-4.87691 -3.14672,-6.31058 -0.61624,-1.43469 -1.16326,-2.43811 -1.16326,-3.65751 0,-1.21948 0.27267,-2.08005 1.02609,-3.0834 0.75299,-1.00435 2.60011,-3.22718 3.4891,-4.94841 0.88908,-1.72107 1.9155,-4.66179 1.9843,-7.17116 0.016,-2.36111 -0.34738,-4.55866 -0.82011,-6.24017 z m 33.89546,0 c 0.48202,-1.38896 1.6419,-4.15918 2.32576,-5.16345 0.68378,-1.00428 2.01798,-2.72551 2.73637,-3.29861 0.71838,-0.57343 1.16326,-0.93208 1.57369,-0.57343 0.41026,0.35712 0.20598,1.36224 -0.34189,2.29509 -2.16427,4.55522 -5.88602,10.27323 -4.78954,15.56281 0.34188,1.29091 1.4366,4.30288 2.32576,5.30724 0.88916,1.00427 1.43677,1.21939 2.46294,1.79249 1.02625,0.57343 1.16334,1.14721 2.18951,0.86066 1.02617,-0.28672 1.98438,-0.86066 2.53115,-1.14721 0.54786,-0.28672 1.23138,-0.78889 1.50481,-0.35882 0.27266,0.43008 -0.27267,1.36225 -0.54786,1.79258 -0.27267,0.43007 -0.68378,1.36233 -0.34189,1.93636 0.34189,0.57343 1.43668,2.22282 2.12054,2.86827 0.68378,0.64554 3.42107,2.79685 4.65245,3.4423 1.23147,0.64554 4.74523,1.77188 5.95197,1.93628 1.2069,0.16626 3.01054,0 3.62619,-0.43008 0.61625,-0.43007 1.04356,-1.2909 1.04356,-1.86493 0,-0.57344 -0.10299,-1.95434 -0.30727,-2.52837 -0.20598,-0.57259 -0.34273,-1.46896 -0.32501,-1.91821 0.0169,-0.44958 0.54787,-0.78974 0.82053,-0.43007 0.27351,0.35882 0.54787,1.43452 0.6154,2.0077 0.0675,0.57343 0.34189,2.5103 0.61624,3.01205 0.27351,0.50133 1.91533,2.22282 2.80525,2.51031 0.88907,0.28671 3.6262,1.00435 4.99392,0.71679 1.36864,-0.28672 2.73636,-0.64554 3.96783,-1.0757 1.23138,-0.43008 3.69432,-1.4346 4.51536,-1.93619 0.82053,-0.50133 2.94158,-2.58181 2.94158,-2.58181 0,0 0.6154,0.28672 1.09429,0.57343 0.47864,0.28672 1.02617,0.7889 1.23147,1.14713 0.20598,0.35882 0.11227,0.96813 0.11227,0.96813 0,0 1.05167,0.53781 1.25697,1.25477 0.20597,0.7168 0.41026,2.22291 0.20597,3.22718 -0.20597,1.00428 -0.88899,3.0834 -1.23138,3.51373 -0.34189,0.43008 -0.688,0.96381 -0.688,0.96381 0,0 -0.20175,2.3348 -0.61202,2.98016 -0.41026,0.64554 -1.23147,2.22291 -1.23147,2.22291 0,0 -0.21526,1.6946 -0.65422,2.42429 -0.44066,0.73206 -1.60341,2.16607 -1.60341,2.16607 0,0 -0.1376,1.36233 -0.68378,2.15148 -0.54786,0.7889 -2.2578,2.43795 -2.2578,2.43795 l -1.16326,1.00436 c 0,0 -0.34189,0.932 -0.95805,1.4346 -0.6154,0.50218 -2.32584,1.0757 -2.32584,1.0757 0,0 -0.27267,0.78889 -0.82053,1.57745 -0.54787,0.7889 -2.25773,2.58173 -2.80525,2.86828 -0.54787,0.28671 -2.18952,0.43007 -2.18952,0.43007 0,0 -0.88916,0.86058 -1.57377,1.21948 -0.68378,0.35798 -2.39482,0.932 -2.39482,0.932 0,0 -1.09438,0.7889 -1.71011,1.29083 -0.6154,0.50133 -2.39473,1.07578 -2.87337,1.21948 -0.47527,0.14505 -2.32247,0.14505 -2.32247,0.14505 0,0 -1.13718,0.6676 -1.64199,0.86058 -0.50312,0.19256 -1.57378,0.71679 -2.05242,0.57343 -0.47864,-0.1442 -1.27418,-0.89162 -1.27418,-0.89162 0,0 -0.91533,0.89162 -1.80449,1.1791 -0.88916,0.28672 -2.46286,0.86049 -3.48919,0.50133 -1.02617,-0.35966 -1.98422,-0.932 -2.66807,-1.2909 -0.68378,-0.35797 -1.57378,-0.64554 -1.57378,-0.64554 0,0 -0.82053,0.28672 -1.23147,0.35967 -0.41027,0.0763 -1.57378,0.50133 -1.57378,0.50133 0,0 -0.45332,0.70831 -1.14942,1.28658 -0.69728,0.57852 -1.58695,1.15136 -2.27165,1.51027 -0.68377,0.35882 -1.36848,0.50133 -1.98421,0.57343 -0.61624,0.0763 -1.29959,0.21547 -1.9843,0.35883 -0.68377,0.1442 -1.8472,0.28671 -2.60011,0.71679 -0.753,0.43007 -1.77005,1.12914 -2.32154,1.28225 -0.55209,0.15269 -1.78322,0.29605 -1.78322,0.29605 l -0.84163,0.35882 c 0,0 0.36299,-5.59378 0.90959,-8.24694 0.54786,-2.65315 1.98438,-8.10417 2.73636,-10.6859 0.75215,-2.58164 2.32585,-8.82096 3.21568,-11.40269 0.89001,-2.58164 2.32593,-5.66512 3.28398,-7.74518 0.95804,-2.07997 2.53097,-4.87691 3.14679,-6.31058 0.6154,-1.43469 1.16326,-2.43811 1.16326,-3.65759 0,-1.2194 -0.27351,-2.07998 -1.02616,-3.08332 -0.753,-1.00436 -2.60004,-3.22718 -3.48911,-4.94841 -0.88916,-1.72107 -1.91541,-4.66179 -1.98438,-7.17116 0.0671,-2.12161 0.19918,-4.38906 0.82019,-6.24102 z M 343.38937,4156.537 343.09138,378.06126 l 0.46176,-8.01366 1.18048,-14.46811 c 0,0 0.71847,-8.17644 0.92361,-10.48884 0.20521,-2.31232 1.48708,-8.01367 2.10332,-10.21935 0.61573,-2.20569 2.51469,-9.89667 3.1132,-11.73403 0.59927,-1.83822 2.37751,-6.44571 2.37751,-6.44571 l 3.33479,-7.53006 c 0,0 2.90461,-6.16781 3.23299,-7.26166 0.32753,-1.09377 -8.5e-4,-2.25888 -0.35962,-2.90442 -0.35868,-0.64536 -2.46369,-3.38903 -3.18124,-4.2496 -0.71754,-0.86049 -2.10357,-4.4638 -2.51384,-5.86227 -0.41031,-1.39838 -0.4626,-5.1101 -0.35961,-6.45427 0.10265,-1.34511 1.6419,-5.43287 2.66807,-6.99226 1.02625,-1.56023 2.9252,-3.92607 3.79706,-4.46473 0.87202,-0.53848 1.18014,0.0534 1.07715,0.69898 -0.10307,0.64546 -0.56483,1.23645 -0.9236,1.98972 -0.35885,0.75301 -1.89811,3.54986 -3.12958,6.34671 -1.23113,2.79694 -1.33412,6.23924 -1.33412,7.47671 0,1.23755 0.82096,3.54995 1.18057,4.67985 0.35962,1.12999 2.82289,3.17382 3.64342,3.76507 0.82104,0.59125 3.33538,0.21462 4.00228,-0.10773 0.66748,-0.32175 1.13025,-0.64579 1.7963,-0.91385 0.66773,-0.26899 0.5639,0.37664 0.46176,0.80671 -0.10215,0.43042 -0.20598,0.48386 -0.46176,0.91394 -0.25579,0.43024 -0.76988,1.1288 -0.6154,1.88291 0.15347,0.75387 1.53841,2.4209 2.51367,3.38903 0.97535,0.96823 4.87506,3.28054 6.77317,4.3028 1.89802,1.02183 6.10543,0.97009 6.82381,0.86066 0.7183,-0.1085 1.3337,-1.34401 1.43669,-2.09813 0.10299,-0.75377 -0.0506,-1.82939 -0.30728,-2.52837 -0.25667,-0.69872 -0.30727,-1.77451 -0.30727,-2.3666 0,-0.59464 0.71897,-0.16457 1.02625,0.0509 0.30728,0.21512 0.25668,0.69863 0.30728,1.34417 0.0507,0.64554 0.15448,1.99057 0.41026,2.9045 0.25688,0.91486 1.53934,1.93585 2.16402,2.31757 0.62401,0.38122 3.94234,1.4475 5.37903,1.4475 1.43668,0 5.90105,-1.61359 5.90105,-1.61359 0,0 3.95087,-1.93644 4.56627,-2.36652 0.61582,-0.43041 1.5384,-1.55938 1.69289,-2.15148 0.15347,-0.59125 -0.35886,-1.72175 -0.92361,-2.41988 -0.56474,-0.69889 -1.69289,-1.50662 -2.25763,-1.77467 -0.56483,-0.26848 -2.00203,-0.70026 -2.66807,-0.86058 -0.66673,-0.16117 -1.89811,-0.53781 -1.89811,-0.53781 0,0 2.30955,-0.37409 3.07859,-0.69813 0.76946,-0.32404 1.53933,-0.59209 1.53933,-0.59209 0,0 -0.35877,1.45089 -0.25578,1.98954 0.10257,0.53874 1.18065,1.34545 1.74456,1.6678 0.56407,0.32192 2.51468,0.75284 3.38654,0.91401 0.87278,0.16177 3.43828,-0.64562 4.66975,-1.0757 1.23139,-0.43033 4.10527,-2.68937 4.9258,-3.28062 0.82103,-0.59125 2.51401,-3.87263 2.92427,-5.00169 0.41027,-1.12905 -0.0506,-3.22709 -0.41026,-4.14111 -0.35962,-0.91393 -1.69365,-2.79659 -2.41204,-3.49557 -0.7183,-0.69983 -1.95019,-1.02218 -2.77072,-1.18335 -0.82095,-0.15864 -2.30896,-0.15864 -3.12949,-0.0509 -0.82062,0.10603 -1.28237,0.26805 -1.28237,0.26805 0,0 0.92385,-1.23755 1.18048,-1.8288 0.25747,-0.59116 0.10299,-1.61359 0.10299,-1.61359 0,0 0.61624,1.12982 1.28228,1.8288 0.66664,0.69881 1.59024,1.12889 2.30863,1.29091 0.71923,0.16117 4.10501,-0.21631 4.87489,-0.37664 0.77013,-0.161 2.92453,-1.39838 3.69441,-2.04392 0.77013,-0.64537 2.56542,-3.28037 3.07867,-3.9259 0.51308,-0.64546 2.20673,-3.87399 2.5655,-4.67986 0.35878,-0.80637 0.76988,-2.47382 1.07716,-3.28053 0.30863,-0.80637 1.18074,-2.7966 1.591,-3.54987 0.41035,-0.7531 1.28322,-3.4423 1.42841,-4.58094 0.1452,-1.13847 0.72604,-5.15396 0.67534,-6.55242 -0.0509,-1.39839 -1.17888,-4.30289 -1.89811,-5.37867 -0.71915,-1.0757 -3.182,-2.20603 -4.05386,-2.52837 -0.87193,-0.32319 -4.31014,-0.64554 -4.31014,-0.64554 l -7.08086,-1.39762 c 0,0 -8.41583,-1.39762 -10.00599,-1.93627 -1.59024,-0.53866 -2.36045,-0.26975 -2.92436,0.26805 -0.56398,0.53696 -1.1798,1.93636 -1.74455,2.85021 -0.56483,0.91402 -2.30845,2.90416 -2.82255,3.71087 -0.5141,0.80713 -0.76988,2.09872 -0.76988,2.79685 0,0.69974 1.4875,2.68938 1.4875,2.68938 0,0 -1.23096,-1.23772 -1.8472,-1.6678 -0.61565,-0.43093 -0.97451,-0.48352 -1.74439,-0.69898 -0.77004,-0.21547 -1.7963,0.16117 -1.7963,0.16117 l 1.18057,-1.23764 c 0,0 1.59125,-1.34443 2.20665,-1.7745 0.61573,-0.43025 2.41364,-1.93653 3.07547,-2.72543 0.66326,-0.78915 0.77384,-2.97592 0.87599,-3.8907 0.1013,-0.91478 -0.41027,-4.35624 -0.56475,-5.48623 -0.15372,-1.1299 -0.56399,-3.92683 -0.9236,-5.11009 -0.35953,-1.18326 -1.64191,-2.68929 -1.64191,-2.68929 0,0 0.76912,0.53823 1.28238,0.86057 0.51308,0.3232 2.61657,0.58614 3.38645,0.64554 0.76988,0.0542 0.97502,0.59235 0.76988,0.96814 -0.2053,0.37578 -0.51308,0.64469 -1.23147,1.12905 -0.71847,0.48454 -1.33386,1.18335 -1.43685,2.04392 -0.10257,0.86058 0.4615,2.95862 1.43685,4.46465 0.97527,1.50654 2.87338,2.31325 2.87338,2.31325 0,0 7.74834,1.66754 8.8255,1.883 1.07707,0.21504 6.15726,1.18292 7.18343,1.39838 1.02625,0.21546 6.20909,0.80756 6.92748,0.5921 0.7183,-0.21529 1.7448,-1.02268 2.3602,-1.45276 0.61582,-0.43033 0.92478,-1.77518 1.18057,-2.47416 0.25657,-0.69881 0.1012,-4.03525 0.0506,-5.00169 -0.0498,-0.96729 -0.51241,-4.67892 -0.66605,-5.86218 -0.15355,-1.18335 -1.07749,-3.81936 -1.48776,-5.05598 -0.41043,-1.23662 -1.6928,-4.89413 -2.77072,-6.93796 -1.078,-2.04392 -2.05242,-3.71138 -3.02777,-4.51809 -0.97526,-0.80688 -2.4637,-1.45242 -3.64342,-1.61359 -1.17972,-0.16117 -3.07859,0.43008 -3.79697,0.64554 -0.71839,0.21546 -1.54002,0.64469 -2.05242,0.48352 -0.51157,-0.16169 -0.46176,-0.91512 -0.25579,-1.23747 0.2053,-0.32234 0.82112,-0.32234 1.591,-0.43008 0.77013,-0.10688 2.92681,0.21547 3.64351,0.21547 0.71762,0 2.46167,-1.12906 2.92427,-1.72115 0.46185,-0.5921 0.8729,-2.52829 0.9236,-3.8192 0.0509,-1.2909 -1.18031,-3.71086 -1.8472,-4.73321 -0.66748,-1.02251 -2.10577,-1.50602 -3.02777,-1.50602 -0.92276,0 -2.46209,-0.0543 -3.33471,-0.32235 -0.87228,-0.26856 -0.97526,-1.6141 -0.97526,-2.41996 0,-0.80637 0.66604,-2.6892 0.66604,-3.33474 0,-0.64546 -0.87295,-2.41996 -1.64198,-3.76507 -0.76921,-1.34512 -3.38654,-3.60416 -4.82315,-4.89498 -1.43677,-1.29082 -2.7708,-1.87696 -3.79705,-1.93636 -1.02617,-0.0542 -2.61776,0.75301 -3.28381,1.39855 -0.66664,0.64537 -2.15431,2.79685 -2.71906,4.08767 -0.56475,1.29091 -0.82053,3.71163 -0.82053,4.73321 0,1.02141 0.4626,2.68921 0.71839,3.28046 0.25578,0.59133 0.66604,1.55947 0.66604,1.55947 0,0 -1.48708,-0.86126 -2.10332,-0.96814 -0.61582,-0.1018 -1.18057,-0.0509 -1.18057,-0.0509 0,0 1.18032,-1.29074 1.48759,-1.98972 0.30902,-0.69966 0.30902,-2.63593 0.35962,-3.54986 0.0518,-0.91402 0.87244,-3.92599 1.3342,-4.78648 0.46134,-0.86066 1.5905,-3.17391 1.84712,-4.03449 0.25747,-0.86057 0.10299,-2.79685 -0.30727,-3.9259 -0.41052,-1.12914 -2.56644,-3.22718 -3.84881,-4.1412 -1.28237,-0.91393 -4.72066,-3.65734 -5.95205,-4.518 -1.23147,-0.86058 -1.95027,-2.31155 -2.7708,-3.28054 -0.82087,-0.96881 -2.77072,-1.56006 -3.79689,-1.66779 -1.02625,-0.10765 -2.61649,0.75284 -3.18124,1.39838 -0.56492,0.64537 -1.48751,2.58088 -1.64199,3.49566 -0.15537,0.91495 -0.20597,3.87263 -0.20597,4.89497 0,1.02243 -0.20514,3.22727 -0.20514,4.24961 0,1.02243 -0.10299,1.883 -0.61624,2.36652 -0.51249,0.48377 -1.02574,0 -1.28237,-0.43007 -0.25747,-0.43034 -0.25747,-2.52855 -0.10299,-3.49566 0.1544,-0.96738 0.87186,-3.28063 1.23147,-4.35633 0.35957,-1.07569 0.46087,-3.65827 0.41027,-4.89506 -0.0513,-1.23661 -0.30796,-2.90441 -0.87186,-3.98011 -0.56399,-1.07569 -2.30896,-2.90432 -3.12949,-3.54986 -0.82104,-0.64545 -3.79706,-1.88317 -5.02853,-2.31325 -1.23147,-0.43041 -5.74683,-1.72149 -7.33783,-2.09812 -1.591,-0.37689 -6.46513,-1.61232 -7.38873,-1.93636 -0.9236,-0.32354 -3.38654,-1.29227 -4.41271,-1.45259 -1.02633,-0.161 -2.97686,0.59193 -3.84872,1.23746 -0.87185,0.64554 -2.46243,2.04393 -3.07867,3.01215 -0.61574,0.96813 -1.6425,3.01189 -1.94977,4.08767 -0.30829,1.0757 -0.8207,3.98019 -1.12882,5.2711 -0.30897,1.29082 -0.0515,5.7005 -0.15448,7.15309 -0.1013,1.45267 -0.1528,6.23923 -0.25579,7.31493 -0.32586,1.65623 -1.28117,1.55981 -1.28117,1.55981 0,0 -0.91066,0.1419 -1.28109,-1.55896 -0.10299,-1.0757 -0.15448,-5.86227 -0.25578,-7.31494 -0.10214,-1.45259 0.15448,-5.86226 -0.15448,-7.15317 -0.30812,-1.29082 -0.82053,-4.19532 -1.12882,-5.27102 -0.30728,-1.07578 -1.33412,-3.11953 -1.94986,-4.08767 -0.61539,-0.96822 -2.20665,-2.36669 -3.07859,-3.01214 -0.87193,-0.64554 -2.82238,-1.39847 -3.84863,-1.23747 -1.02625,0.16033 -3.48911,1.12906 -4.41271,1.45259 -0.9236,0.32319 -5.79782,1.55947 -7.38882,1.93636 -1.591,0.37664 -6.10636,1.66771 -7.33774,2.09813 -1.23164,0.43007 -4.20766,1.66779 -5.02861,2.31324 -0.82053,0.64554 -2.56551,2.47417 -3.12958,3.54987 -0.5639,1.0757 -0.82053,2.74349 -0.87185,3.98011 -0.0507,1.23679 0.0506,3.81928 0.41026,4.89506 0.35962,1.0757 1.07716,3.38895 1.23147,4.35632 0.15448,0.96712 0.15448,3.06524 -0.10299,3.49566 -0.25662,0.43008 -0.76988,0.91385 -1.28246,0.43008 -0.5124,-0.48352 -0.61624,-1.3441 -0.61624,-2.36652 0,-1.02235 -0.20513,-3.22719 -0.20513,-4.24961 0,-1.02234 -0.0507,-3.98011 -0.20513,-4.89498 -0.15448,-0.91478 -1.07716,-2.85029 -1.64199,-3.49566 -0.56475,-0.64553 -2.15507,-1.50603 -3.18124,-1.39838 -1.02625,0.10773 -2.97602,0.69898 -3.79697,1.6678 -0.82053,0.96898 -1.53942,2.41987 -2.77081,3.28045 -1.23147,0.86066 -4.66967,3.60415 -5.95196,4.51808 -1.28246,0.91402 -3.43829,3.01206 -3.8488,4.1412 -0.41027,1.12906 -0.56475,3.06533 -0.30728,3.92591 0.25663,0.86057 1.38587,3.17382 1.8472,4.03448 0.46176,0.86049 1.28229,3.87247 1.33412,4.78648 0.0507,0.91393 0.0507,2.85021 0.35962,3.54987 0.30812,0.69898 1.48767,1.98971 1.48767,1.98971 0,0 -0.56475,-0.0509 -1.18065,0.0509 -0.6154,0.10689 -2.10417,0.96916 -2.10417,0.96916 0,0 0.41027,-0.96822 0.66605,-1.55947 0.25578,-0.59125 0.71838,-2.25905 0.71838,-3.28062 0,-1.02141 -0.25578,-3.44231 -0.82052,-4.73313 -0.56475,-1.2909 -2.05243,-3.4423 -2.71906,-4.08767 -0.66605,-0.64554 -2.25764,-1.45276 -3.28389,-1.39847 -1.02617,0.0594 -2.36021,0.64554 -3.79698,1.93619 -1.43677,1.29091 -4.05394,3.54995 -4.82322,4.89498 -0.76904,1.34519 -1.64199,3.11962 -1.64199,3.76515 0,0.64554 0.66605,2.52838 0.66605,3.33475 0,0.80586 -0.10299,2.15139 -0.97519,2.41996 -0.87269,0.26805 -2.41211,0.32234 -3.33487,0.32234 -0.92284,0 -2.36021,0.48352 -3.02769,1.50595 -0.66689,1.02242 -1.89811,3.4423 -1.8472,4.73329 0.0507,1.29082 0.46176,3.2271 0.9236,3.81919 0.4626,0.5921 2.20673,1.72115 2.92427,1.72115 0.71755,0 2.87338,-0.32234 3.64351,-0.21546 0.76988,0.10773 1.3857,0.10773 1.591,0.43008 0.20513,0.32234 0.25578,1.07578 -0.25578,1.23755 -0.51241,0.16117 -1.33404,-0.26806 -2.05242,-0.48352 -0.71839,-0.21546 -2.61726,-0.80671 -3.79698,-0.64554 -1.17972,0.16117 -2.66815,0.80671 -3.64342,1.61359 -0.97526,0.80586 -1.94977,2.47408 -3.02777,4.518 -1.07791,2.04392 -2.36037,5.70135 -2.7708,6.93805 -0.41027,1.23662 -1.33404,3.87264 -1.48759,5.0559 -0.15364,1.18334 -0.61624,4.89497 -0.66605,5.86226 -0.0506,0.96814 -0.20513,4.30296 0.0507,5.00169 0.25578,0.69813 0.56475,2.04299 1.18057,2.47332 0.61624,0.43007 1.64198,1.23746 2.36029,1.45275 0.71838,0.21547 5.9013,-0.37663 6.92739,-0.59209 1.02625,-0.21547 6.10644,-1.18326 7.18351,-1.3983 1.07707,-0.21546 8.82542,-1.883 8.82542,-1.883 0,0 1.89811,-0.80671 2.87337,-2.31325 0.97535,-1.50603 1.53942,-3.60407 1.43677,-4.46465 -0.10298,-0.86057 -0.71838,-1.55938 -1.43677,-2.04392 -0.71838,-0.48436 -1.02617,-0.75327 -1.23138,-1.12905 -0.20513,-0.37579 0,-0.91394 0.76988,-0.96814 0.76988,-0.0594 2.87337,-0.32234 3.38645,-0.64554 0.51326,-0.32234 1.28238,-0.86057 1.28238,-0.86057 0,0 -1.28238,1.50603 -1.64199,2.68929 -0.35962,1.18326 -0.76988,3.98019 -0.9236,5.11009 -0.15364,1.12999 -0.66605,4.57145 -0.56475,5.48623 0.10214,0.91478 0.21357,3.10155 0.87599,3.89061 0.66267,0.7889 2.4588,2.29527 3.07454,2.72551 0.61624,0.43008 2.20682,1.77451 2.20682,1.77451 l 1.18056,1.23764 c 0,0 -1.02617,-0.37664 -1.79638,-0.16118 -0.76988,0.21547 -1.12882,0.26891 -1.74447,0.69898 -0.6154,0.43008 -1.84721,1.66771 -1.84721,1.66771 0,0 1.48759,-1.98963 1.48759,-2.68929 0,-0.69897 -0.25578,-1.98963 -0.76988,-2.79685 -0.51409,-0.80671 -2.25755,-2.79693 -2.82246,-3.71086 -0.56475,-0.91385 -1.18049,-2.31325 -1.74456,-2.85021 -0.5639,-0.53611 -1.33403,-0.80671 -2.92436,-0.26805 -1.59015,0.53865 -10.0059,1.93619 -10.0059,1.93619 l -7.08002,1.39685 c 0,0 -3.43828,0.32235 -4.31014,0.64554 -0.87194,0.32234 -3.33471,1.45267 -4.05394,2.52837 -0.71923,1.07578 -1.8472,3.98028 -1.8981,5.37866 -0.0507,1.39847 0.53013,5.41395 0.67533,6.55242 0.14604,1.13864 1.01815,3.82785 1.4285,4.58095 0.41026,0.75327 1.28229,2.74179 1.59032,3.54893 0.30728,0.80671 0.71839,2.47425 1.07707,3.28062 0.35877,0.80671 2.05242,4.03431 2.56551,4.67977 0.51325,0.64554 2.30862,3.28062 3.07858,3.92599 0.76988,0.64554 2.92428,1.883 3.69441,2.04383 0.76988,0.16118 4.15566,0.53781 4.87498,0.37664 0.71923,-0.16033 1.6419,-0.5921 2.30862,-1.29099 0.66605,-0.69898 1.28305,-1.82863 1.28305,-1.82863 0,0 -0.15448,1.02234 0.10299,1.6135 0.25662,0.59125 1.18048,1.8288 1.18048,1.8288 0,0 -0.46176,-0.16117 -1.28229,-0.26805 -0.82053,-0.10773 -2.30845,-0.10773 -3.12941,0.0509 -0.82053,0.16033 -2.05242,0.48352 -2.7708,1.18326 -0.71839,0.69898 -2.05234,2.58173 -2.41204,3.49566 -0.35961,0.91402 -0.82053,3.01198 -0.41026,4.14112 0.41026,1.12905 2.10332,4.41044 2.92427,5.00177 0.82053,0.59125 3.69441,2.85021 4.9258,3.28045 1.23138,0.43008 3.79697,1.23747 4.66967,1.07578 0.8727,-0.16117 2.82255,-0.59209 3.38654,-0.91393 0.5639,-0.32234 1.64199,-1.12905 1.74464,-1.66788 0.10299,-0.53865 -0.25578,-1.98963 -0.25578,-1.98963 0,0 0.76987,0.26806 1.53933,0.5921 0.76904,0.32319 3.07859,0.69813 3.07859,0.69813 0,0 -1.23147,0.37663 -1.89811,0.53781 -0.66604,0.16032 -2.10332,0.59209 -2.66815,0.86057 -0.56475,0.26806 -1.69281,1.07579 -2.25764,1.77459 -0.56475,0.69814 -1.07707,1.82863 -0.92352,2.41988 0.15364,0.5921 1.07707,1.72115 1.69281,2.15157 0.6154,0.43007 4.56626,2.36652 4.56626,2.36652 0,0 4.46437,1.61359 5.90106,1.61359 1.43677,0 4.7551,-1.06628 5.37911,-1.4475 0.62468,-0.38172 1.90705,-1.40271 2.16402,-2.31749 0.25663,-0.91402 0.35961,-2.25904 0.41026,-2.90458 0.0507,-0.64554 0,-1.12906 0.30728,-1.34418 0.30728,-0.21546 1.02617,-0.64554 1.02617,-0.0509 0,0.59209 -0.0507,1.66787 -0.30728,2.3666 -0.25662,0.69813 -0.41026,1.77459 -0.30727,2.52837 0.10298,0.75412 0.71838,1.98963 1.43677,2.09804 0.71838,0.10943 4.9257,0.16202 6.82381,-0.86057 1.89802,-1.02226 5.79773,-3.33466 6.77308,-4.30288 0.97535,-0.96814 2.36029,-2.63509 2.51376,-3.38887 0.15364,-0.75411 -0.35961,-1.45275 -0.61624,-1.883 -0.25578,-0.43007 -0.35962,-0.48352 -0.46176,-0.91393 -0.10214,-0.43008 -0.20513,-1.07578 0.46176,-0.80671 0.66605,0.26805 1.12882,0.5921 1.7963,0.91385 0.66689,0.32234 3.18124,0.69898 4.00219,0.10773 0.82053,-0.59125 3.28397,-2.63517 3.64342,-3.76499 0.35962,-1.12999 1.18057,-3.44239 1.18057,-4.67994 0,-1.23746 -0.10299,-4.67976 -1.33404,-7.47678 -1.23155,-2.79677 -2.7708,-5.5937 -3.12958,-6.34672 -0.35877,-0.75327 -0.82052,-1.34418 -0.9236,-1.98963 -0.10299,-0.64554 0.20514,-1.23746 1.07716,-0.69898 0.87185,0.53866 2.7708,2.90458 3.79697,4.46473 1.02626,1.55947 2.56551,5.64714 2.66816,6.99225 0.10299,1.34427 0.0507,5.0559 -0.35962,6.45436 -0.41026,1.39847 -1.7963,5.00178 -2.51384,5.86227 -0.71754,0.86066 -2.82247,3.60415 -3.18124,4.24952 -0.35877,0.64554 -0.68799,1.81073 -0.35961,2.9045 0.32922,1.09385 3.23298,7.26158 3.23298,7.26158 l 3.3348,7.53014 c 0,0 1.77899,4.60758 2.37751,6.44562 0.59851,1.83737 2.49746,9.52843 3.1132,11.73412 0.61539,2.20569 1.89802,7.90703 2.10332,10.21935 0.20513,2.31248 0.9236,10.48876 0.9236,10.48876 l 1.18048,14.4681 0.46176,8.01375 -0.18993,3778.48604"
         inkscape:connector-curvature="0"
         sodipodi:nodetypes="ccccccsccccccccccsccccccccscccccsccccccccccccsccccccccccccccccccccccccccccscccccccccccccccccccccscccccccccccccccccccccccccccsccccccccccccccccccccccccccccscccccccccccccccccccccccscccccccsccccscsccsccccccccccccccscccccccccccccccccccccccccsccccccccccccccccccccccccccccsscccscccscsscccccscccccccccccccccsscccscccccccscccccccccccccccccccccccssccccccccccccccsscccccsscscccscccssccccccccccccccccccscccccccccsccccccccccccccccccccccccccccccccccccccccsccscsccccccccccccsccccccscccccccccccc" />
      <g
         transform="translate(0,-0.25)"
         id="g4803">
        <g
           id="g4793">
          <g
             transform="matrix(1.0136792,0,0,1.0136792,-4.6118391,-3.2408709)"
             id="g4774">
            <g
               id="g4763"
               transform="matrix(1.0197269,0,0,1.0197269,-6.6507872,-4.6736977)">
              <use
                 height="100%"
                 width="100%"
                 transform="matrix(0.43508739,0,0,0.45805332,190.45629,113.51124)"
                 id="use4759"
                 xlink:href="#path4193"
                 y="0"
                 x="0" />
              <use
                 height="100%"
                 width="100%"
                 transform="matrix(0.46929128,0,0,0.46929128,178.92469,110.62809)"
                 id="use4761"
                 xlink:href="#use4759"
                 y="0"
                 x="0" />
            </g>
            <use
               x="0"
               y="0"
               xlink:href="#g4763"
               id="use4767"
               transform="matrix(0.22517328,0,0,0.22517328,261.22734,161.14334)"
               width="100%"
               height="100%" />
          </g>
          <use
             height="100%"
             width="100%"
             transform="matrix(0.04934432,0,0,0.04934432,320.50683,197.29911)"
             id="use4780"
             xlink:href="#g4774"
             y="0"
             x="0" />
        </g>
        <use
           x="0"
           y="0"
           xlink:href="#g4793"
           id="use4801"
           transform="matrix(0.00239589,0,0,0.00239589,336.33516,207.04283)"
           width="100%"
           height="100%" />
      </g>
    </g>
  </g>
</svg>
